<svg xmlns="http://www.w3.org/2000/svg" width="111" height="88" viewBox="0 0 111 88"><g><g><path fill="#3c3676" d="M49.448 25.534c0 6.662-1.025 11.529-6.916 25.619l-14.603 36.89H2.566L13.838 47.31C5.384 43.98.005 36.038.005 25.534.005 10.676 10.765.941 24.855.941c14.346 0 24.593 9.99 24.593 24.593zm61.565 0c0 6.662-1.025 11.529-6.917 25.619l-14.603 36.89H64.131L75.403 47.31C66.95 43.98 61.57 36.038 61.57 25.534 61.57 10.676 72.33.941 86.42.941c14.346 0 24.594 9.99 24.594 24.593z"/></g></g></svg>