<svg xmlns="http://www.w3.org/2000/svg" width="111" height="87.09" viewBox="0 0 111 87.09">
  <defs>
    <style>
      .cls-1 {
        fill: #82125b;
        fill-rule: evenodd;
      }
    </style>
  </defs>
  <path id="_" data-name="," class="cls-1" d="M1250.85,2168.94c-14.09,0-24.85,9.74-24.85,24.59,0,10.51,5.38,18.45,13.84,21.78l-11.27,40.73h25.36l14.6-36.89c5.89-14.09,6.92-18.95,6.92-25.62C1275.45,2178.93,1265.2,2168.94,1250.85,2168.94Zm61.57,0c-14.09,0-24.85,9.74-24.85,24.59,0,10.51,5.38,18.45,13.83,21.78l-11.27,40.73h25.36l14.61-36.89c5.89-14.09,6.91-18.95,6.91-25.62C1337.01,2178.93,1326.76,2168.94,1312.42,2168.94Z" transform="translate(-1226 -2168.94)"/>
</svg>
