<svg id="Слой_1" data-name="Слой 1" xmlns="http://www.w3.org/2000/svg" xmlns:xlink="http://www.w3.org/1999/xlink" viewBox="0 0 102 102">
  <defs>
    <style>
      .cls-1 {
        fill-rule: evenodd;
        fill: url(#Безымянный_градиент_10);
      }
    </style>
    <linearGradient id="Безымянный_градиент_10" data-name="Безымянный градиент 10" x1="39.376" y1="29.619" x2="60.87" y2="87.356" gradientUnits="userSpaceOnUse">
      <stop offset="0" stop-color="#80ff8f"/>
      <stop offset="1" stop-color="#2d31ff"/>
    </linearGradient>
  </defs>
  <title>производство</title>
  <path class="cls-1" d="M74.5,38.526V23.883H38.249v7.232H23.786v7.231H56.325V31.115H41.862V27.5H70.888v11.03a9.15,9.15,0,0,0-7.329,8.956V52.81H59.941V41.959H20.17V78.117H59.941V63.654h3.618V78.117H81.83V47.482A9.151,9.151,0,0,0,74.5,38.526ZM49.1,45.577H52.71V49.19H49.1Zm0,7.233H52.71v3.613H49.1Zm0,7.231H52.71v3.613H49.1ZM41.863,45.577h3.616V49.19H41.863Zm0,7.233h3.616v3.613H41.863Zm0,7.231h3.616v3.613H41.863ZM34.632,45.577h3.616V49.19H34.632Zm0,7.233h3.616v3.613H34.632Zm0,7.231h3.616v3.613H34.632ZM27.4,45.577h3.616V49.19H27.4Zm0,7.233h3.616v3.613H27.4Zm0,7.231h3.616v3.613H27.4Zm32.541,0V56.423h3.618v3.618Zm0,0"/>
</svg>
