<svg id="Слой_1" data-name="Слой 1" xmlns="http://www.w3.org/2000/svg" xmlns:xlink="http://www.w3.org/1999/xlink" viewBox="0 0 222 53">
  <defs>
    <style>
      .cls-1 {
        fill: #fff;
      }

      .cls-2, .cls-3 {
        fill-rule: evenodd;
      }

      .cls-2 {
        fill: url(#Безымянный_градиент_3);
      }

      .cls-3 {
        fill: url(#Безымянный_градиент_3-2);
      }
    </style>
    <linearGradient id="Безымянный_градиент_3" data-name="Безымянный градиент 3" x1="6.23" y1="24.96" x2="-8.44" y2="62.23" gradientTransform="matrix(1.03, 0, 0, -1.03, 23.4, 70.77)" gradientUnits="userSpaceOnUse">
      <stop offset="0" stop-color="#2d31ff"/>
      <stop offset="1" stop-color="#80ff8f"/>
    </linearGradient>
    <linearGradient id="Безымянный_градиент_3-2" x1="7.36" y1="20.49" x2="10.14" y2="66.51" xlink:href="#Безымянный_градиент_3"/>
  </defs>
  <title>Logo</title>
  <g>
    <path class="cls-1" d="M78.62,37.05h5.1V15.79H82.37L72.56,24.9l-9.68-9.11H61.5V37.05h5.1V25.86l5.6,5.45h.89l5.53-5.42V37.05Zm6.91,0H91.3l1.14-2.51h9.25l1.17,2.51h5.81L97.51,15.79h-.85L85.53,37.05Zm14.28-6.69.32.56H94l.32-.56,2.62-5.57h.29Zm29.31-14.57h-6.2c-1.1,2-2.13,4-3.23,5.92-.25.53-.64,1.49-.89,2l-.88-2-3.23-5.92h-6.2l6.38,10.38-6.48,10.88h6.2l3.33-6.27c.25-.53.64-1.42.88-1.88l.89,1.88L123,37.05h6.24l-6.59-10.88,6.45-10.38Zm7.83,0h-5.14V37.05H137Zm4.89,21.26h4.29V28.23h10.49V24.72H146.13V19.55h12.22V15.79H141.84Zm34.23-12.33H166V19.55h12.22V15.79H161.72V37.05h16.51V33.3H166V28.23h10.06Zm20.31,0H186.31V19.55h12.23V15.79H182V37.05h16.51V33.3H186.31V28.23h10.07ZM222,26.42c0-6.23-4.32-10.63-11.3-10.63h-8.37V37.05h8.37C217.68,37.05,222,32.66,222,26.42Zm-11.59-6.87c4.11,0,7.16,2.41,7.16,6.87s-3,6.88-7.16,6.88h-3.79V19.55Z"/>
    <path class="cls-2" d="M12.14,47.42,0,26.39,12.1,5.44h5.41L14,11.53,6.77,24.05h5.41L22.92,5.44h5.34L17.51,24.05H23L33.75,5.45l2.7,4.67-9.4,16.27,3.59,6.22L40,16.33,42.74,21l-9.4,16.27,3.15,5.45-2.71,4.68C30.19,41.19,26.57,35,23,28.74H17.51L28.3,47.42H22.88L12.1,28.74H6.77L17.55,47.42Z"/>
    <polygon class="cls-3" points="37.3 52.98 52.65 26.4 37.42 0.01 36.81 0.01 32.26 0.01 17.3 0.01 13.49 3.04 35.17 3.04 48.65 26.39 35.04 49.96 13.6 49.96 17.52 52.98 32.13 52.98 36.81 52.98 37.3 52.98"/>
  </g>
</svg>
