<svg id="Capa_1" data-name="Capa 1" xmlns="http://www.w3.org/2000/svg" viewBox="0 0 290 42">
  <defs>
    <style>
      .cls-1 {
        fill: #8de100;
      }
    </style>
  </defs>
  <title>ic_prod_korm</title>
  <path class="cls-1" d="M161.73778,18.40707l3.68911-3.50142-3.81987-2.003,1.92708-6.21608-16.594,8.54339a2.23371,2.23371,0,0,1-1.90116.06956c-.04355-.0205-.07916-.03658-.10475-.04807a2.24747,2.24747,0,0,1-.82958-.69152l-6.924-9.46977.60949-1.29519a1.72027,1.72027,0,0,0-2.02576-2.38982A1.71986,1.71986,0,0,0,132.77944.587a1.72252,1.72252,0,0,0-2.69514,2.09377l.26816.46463a4.47014,4.47014,0,0,0-1.4823,1.77933l-4.297,1.99763L127.392,8.5771l-.3976.75937a2.42409,2.42409,0,0,0,1.46918,3.45236v6.14595a15.45022,15.45022,0,0,0,4.16308,10.42281,14.02492,14.02492,0,0,0,8.30116,4.42386v4.53838a1.22137,1.22137,0,0,1-1.21989,1.21989h-3.93717V42h8.321a3.68567,3.68567,0,0,0,3.68025-3.68657l-.02281-4.49638a14.33834,14.33834,0,0,0,5.044-2.31451l4.305.35118-.199-4.23h3.57476l-.70719-4.49629,5.003-.30926ZM144.09171,39.53972h-.91227a3.66314,3.66314,0,0,0,.20861-1.21989V33.91131h1.90148l.02239,4.40852a1.22138,1.22138,0,0,1-1.22021,1.21989Zm16.189-18.90919-3.36426.208.67995,4.32493h-3.27608l.18875,4.01084-2.43181-.1986-.37365.281c-.779.58578-3.16264,2.11616-4.85363,2.19433h-4.07334a11.40352,11.40352,0,0,1-8.35243-3.77343,12.96373,12.96373,0,0,1-3.50076-8.74273V6.77882A1.98519,1.98519,0,0,1,134.511,5.607l7.6075,10.40509a4.7165,4.7165,0,0,0,1.80018,1.47976v.00033l.00927.00418.03527.01633a14.09144,14.09144,0,0,1,6.46767,6.43207,18.41463,18.41463,0,0,1-4.55593.81005c-4.00838.16989-6.99735-1.25064-8.88505-4.22042l-2.07638,1.31988A11.59168,11.59168,0,0,0,145.253,27.22863q.35855,0,.7254-.01575a20.64029,20.64029,0,0,0,6.53272-1.39609l1.03565-.439-.34478-1.07059a14.85368,14.85368,0,0,0-4.96256-6.97905l11.20883-5.771-.79759,2.57341,2.58874,1.35737-2.7195,2.58111Zm0,0"/>
  <g>
    <path class="cls-1" d="M40.2045,14.01662A32.35464,32.35464,0,0,0,29.17086,6.60133a27.09217,27.09217,0,0,0-9.85917-1.66021h-.30461A25.19946,25.19946,0,0,0,4.06678,0H1.053V3.6692a12.24921,12.24921,0,0,0,3.31757,8.37955A17.29551,17.29551,0,0,0,18.48328,39.52922h8.93758A8.52941,8.52941,0,0,0,33.1707,42h4.4695L34.552,35.8237l3.0882-6.17663H33.1707a8.52857,8.52857,0,0,0-5.74984,2.47068h-4.1323a4.96087,4.96087,0,0,1-4.27886-2.47068h.511a8.66035,8.66035,0,0,0,8.57435-7.523c5.00817-.44429,9.45754-2.29808,12.28-6.533l.572-.85881ZM3.52373,2.47078a22.87023,22.87023,0,0,1,11.43013,2.801,17.172,17.172,0,0,0-8.97433,4.87571A9.778,9.778,0,0,1,3.52373,3.6692Zm29.647,29.647h.47174l-1.85292,3.706,1.85292,3.70552H33.1707c-2.15753,0-4.941-1.797-4.941-3.70552,0-1.90892,2.78349-3.706,4.941-3.706Zm-13.65-4.94146H13.53024a6.18711,6.18711,0,0,1,6.05237-4.94112h5.99047a6.18677,6.18677,0,0,1-6.05238,4.94112Zm5.97713-7.41146H19.58261a8.65677,8.65677,0,0,0-8.64708,8.64707v1.23517h5.36408a7.439,7.439,0,0,0,6.98895,4.941h2.64a4.58522,4.58522,0,0,0,0,2.47078H18.48328A14.8238,14.8238,0,1,1,18.347,7.4119a28.72432,28.72432,0,0,1,8.25267.93779A11.13462,11.13462,0,0,0,25.676,19.76351c-.05939.00044-.11834.00132-.17817.00132Zm2.93945-.15849A8.6393,8.6393,0,0,1,29.059,9.21659,29.76908,29.76908,0,0,1,37.70812,15.057c-2.29173,2.86081-5.62942,4.1358-9.27084,4.54934Zm0,0"/>
    <rect class="cls-1" x="29.46486" y="13.58809" width="2.47078" height="2.47078"/>
  </g>
  <path class="cls-1" d="M190.01352,4.81206V8.51419a3.9614,3.9614,0,0,0,3.96232,4.04424h1.11847v1.91068a12.86121,12.86121,0,0,0-1.2484,11.67239l.89512,2.33144v6.36125a4.33,4.33,0,0,0-3.12057,4.152V42h27.50518V38.2539h.16155a4.70454,4.70454,0,0,0,4.69929-4.69929V25.55022H222.759a6.04808,6.04808,0,0,0-4.44161,1.941,16.11558,16.11558,0,0,0-5.462-7.74857l-7.54392-5.84554v-3.242a3.83508,3.83508,0,0,0,1.80086-3.24876V4.73605A4.7415,4.7415,0,0,0,202.37639,0h-4.22548a4.507,4.507,0,0,0-3.82648,2.14944L193.27639,3.87Zm14.64389-.076V7.40633a1.38,1.38,0,0,1-2.76,0l.01914-4.951h.45981A2.28287,2.28287,0,0,1,204.657,4.73605ZM219.14959,31.615A3.61625,3.61625,0,0,1,221.531,28.2205v5.33411a2.24639,2.24639,0,0,1-2.24383,2.24393h-.1376Zm-25.07378,7.37122a1.86884,1.86884,0,0,1,1.867-1.8666h1.25354V28.0175l-1.05831-2.75614a10.40866,10.40866,0,0,1,1.0699-9.53488h6.45608l7.68743,5.95711a13.72251,13.72251,0,0,1,5.31879,10.84946v7.01159H202.72541v-.505a1.92224,1.92224,0,0,1,1.92008-1.92008h2.7557V32.81075a4.42666,4.42666,0,0,1,4.34722-4.42542l-.044-2.45493a6.88127,6.88127,0,0,0-6.75861,6.88035v1.85347h-.30034a4.34694,4.34694,0,0,0-2.04313.50793V23.43654h-2.45492v16.1081h-6.07163v-.55847ZM192.469,6.65864l2.407-.69519,1.54536-2.53651a2.0365,2.0365,0,0,1,1.72955-.97158h1.31031L199.442,7.40162a3.84148,3.84148,0,0,0,3.41458,3.8161v2.0534h-5.30677V10.10351h-3.57349A1.5156,1.5156,0,0,1,192.469,8.51419Zm0,1.85555"/>
  <path class="cls-1" d="M281.36659,25.86588h5.31114V23.40581h-5.31114a5.2269,5.2269,0,0,0-5.2209,5.22091v.171a5.2269,5.2269,0,0,0,5.2209,5.22091h.09024a2.76068,2.76068,0,1,1,0,5.52135h-6.15322l-1.48936-12.95579a12.95659,12.95659,0,0,0-1.37408-5.34614,14.45473,14.45473,0,0,0-3.8255-4.93817c-.12436-.10085-.24533-.2076-.36017-.31828a3.70926,3.70926,0,0,1-.81014-4.08319,6.79267,6.79267,0,0,0,.49306-2.54767v-.126a6.37548,6.37548,0,0,0-1.87983-4.53819,5.92872,5.92872,0,0,0-2.75789-1.69061A9.65715,9.65715,0,0,0,261.586,1.10272a3.94022,3.94022,0,0,0-4.26945-.78313L256.40394.717l.85958,4.21947c-1.2039.91088-4.2455,2.81378-4.2455,2.81378l.60921,3.0356c.08586.23712.13115.41059.17522.57771a2.80485,2.80485,0,0,0,.76563,1.42823,3.54514,3.54514,0,0,0,1.32748.79515,1.11235,1.11235,0,0,1,.70317,1.26678c-.9532,4.57658-1.88365,9.18367-1.88365,10.83961v9.05887A3.62773,3.62773,0,0,0,254.95045,42h26.50638a5.22075,5.22075,0,1,0,0-10.44149h-.09067a2.76394,2.76394,0,0,1-2.76041-2.76084v-.171a2.764,2.764,0,0,1,2.76084-2.76084ZM253.78276,38.37181a1.16935,1.16935,0,0,1,1.16769-1.16812h6.73127V33.74175a3.27082,3.27082,0,0,1,3.26714-3.26714h1.23V28.01454h-1.23a5.69142,5.69142,0,0,0-3.26714,1.02747V26.37556h-2.46006v8.36806h-2.04652V25.69328a100.00066,100.00066,0,0,1,1.832-10.338,3.563,3.563,0,0,0-2.23278-4.06657,1.94746,1.94746,0,0,1-.44439-.21361,7.93147,7.93147,0,0,1-.35635-1.03316l-.19775-1.00909c1.34576-.87926,3.32949-2.40537,3.59866-2.61307l.60627-.46824-.68917-3.38209a5.54874,5.54874,0,0,1,2.252,2.21528l.30034.4469.53233.08247a3.29165,3.29165,0,0,1,1.94184,1.11257,3.9297,3.9297,0,0,1,1.15916,2.798v.12643a4.3482,4.3482,0,0,1-.31533,1.62958,6.15756,6.15756,0,0,0,1.38556,6.77261c.16494.159.33885.31281.517.45719a12.12369,12.12369,0,0,1,4.28947,8.4467v.07044l1.47317,12.81229h-17.8768a1.16907,1.16907,0,0,1-1.16769-1.16812Zm0,0"/>
  <g>
    <rect class="cls-1" x="75.5334" y="20.4773" width="2.46094" height="2.46094"/>
    <path class="cls-1" d="M104,30.50261c-1.815-7.52467-3.79312-16.41566-4.02423-17.00738l-.00427-.01367-.00087.00044A7.12685,7.12685,0,0,0,93.34447,8.96h-18.345l.22214-1.26722h1.54229V5.23184h-2.3007A6.20548,6.20548,0,0,0,75.7095,1.261H73.24593a3.72634,3.72634,0,1,1-7.43662,0H63.34586a6.20789,6.20789,0,0,0,1.24622,3.97085H62V7.69278h1.83422L65.33079,16.236a3.06987,3.06987,0,0,0,1.50566,2.10854v3.7136A7.80416,7.80416,0,0,0,70.35351,28.58l1.50643,12.10858h5.5312l1.40777-10.82648H80.243a7.34471,7.34471,0,0,0,1.483,3.3343l-1.36041,1.56373,1.85686,1.61536,1.32825-1.52742a7.34078,7.34078,0,0,0,1.79867.834v2.364h2.46094V36a7.33877,7.33877,0,0,0,3.627-1.1177V40.739h5.511l3.23433-15.44156c.47294,1.99227.95955,3.98661,1.40941,5.72721ZM68.67909,16.374a.89555.89555,0,0,1-.92454-.56307l-.80829-4.61387a11.13828,11.13828,0,0,0,4.668,2.82362l-.31358,1.79025a.89546.89546,0,0,1-.92455.56307Zm3.36416-4.801a8.69076,8.69076,0,0,1-4.69886-3.88019H72.723ZM82.75686,29.86211H86.4393a7.53961,7.53961,0,0,0,3.67729,2.9412,4.91934,4.91934,0,0,1-7.35973-2.9412Zm12.19236,8.416H93.89779V30.83281a7.01253,7.01253,0,0,1-3.84267-.79548,6.56194,6.56194,0,0,1-2.16234-2.63616H76.63744L75.22923,38.22766H74.03377L72.6435,27.056a5.65832,5.65832,0,0,1-3.34611-4.99832V18.83492h1.07876a3.29579,3.29579,0,0,0,3.3483-2.5994l.84383-4.81458h6.74789a6.03266,6.03266,0,0,0,4.86,9.61133h.81856A10.43724,10.43724,0,0,0,97.25211,27.2837Zm3.05014-22.20269v7.64083l-.2158,1.031a7.95816,7.95816,0,0,1-6.27244-1.6812,9.121,9.121,0,0,1-2.775-4.49466h-2.56a3.5752,3.5752,0,1,1,0-7.15039h7.16833a4.71325,4.71325,0,0,1,4.65489,4.65445Zm0,0"/>
  </g>
</svg>
