<svg id="Capa_1" data-name="Capa 1" xmlns="http://www.w3.org/2000/svg" viewBox="0 0 42 42">
  <defs>
    <style>
      .cls-1 {
        fill: #8de100;
      }
    </style>
  </defs>
  <title>ic_prod_eda</title>
  <g>
    <path class="cls-1" d="M40.75837,12.367V4.94112H38.288V0H21.00514V4.94112H18.5348V12.367h7.41147V29.633H18.5348v7.42634h2.47034V42H38.288V37.05931h2.47034V29.633H33.34745V12.367ZM23.4652,2.46006H35.828V4.94112H23.4652ZM20.99486,7.40119H38.29831V9.907H20.99486ZM35.828,39.53993H23.4652V37.05887H35.828Zm2.47034-4.94112H20.99486V32.093H38.29831ZM30.887,29.633H28.40633V12.367H30.887Zm0,0"/>
    <path class="cls-1" d="M12.27264,4.94112H4.87145V12.946L1.24163,15.42909V21a3.6834,3.6834,0,0,0,.94806,2.47034,3.69307,3.69307,0,0,0,0,4.94113,3.69306,3.69306,0,0,0,0,4.94112,3.68338,3.68338,0,0,0-.94806,2.47024V41.994H16.064V35.82283a3.68549,3.68549,0,0,0-.94807-2.47024,3.693,3.693,0,0,0,0-4.94112,3.693,3.693,0,0,0,0-4.94113A3.68552,3.68552,0,0,0,16.064,21V15.4129l-3.79138-2.4827ZM9.81258,7.40119V9.88181H7.33152V7.40119ZM13.604,25.94112a1.24184,1.24184,0,0,1-1.24031,1.24031H4.942a1.24053,1.24053,0,0,1,0-2.48106h7.42164A1.24194,1.24194,0,0,1,13.604,25.94112Zm0,4.94069a1.24156,1.24156,0,0,1-1.24031,1.24031H4.942a1.24031,1.24031,0,1,1,0-2.48062h7.42164A1.24156,1.24156,0,0,1,13.604,30.88181Zm0,8.65167H3.70169V35.82283A1.24154,1.24154,0,0,1,4.942,34.58262h7.42164A1.24154,1.24154,0,0,1,13.604,35.82283Zm0-22.791V21a1.24156,1.24156,0,0,1-1.24031,1.24031H4.942A1.24156,1.24156,0,0,1,3.70169,21V16.72672L7.332,14.2439v-1.902H9.81258v1.91789Zm0,0"/>
  </g>
</svg>
